<!--?xml version="1.0" encoding="utf-8"?-->
<!-- Generator: Adobe Illustrator 18.1.1, SVG Export Plug-In . SVG Version: 6.00 Build 0)  -->

<svg version="1.1" id="_x32_" xmlns="http://www.w3.org/2000/svg" xmlns:xlink="http://www.w3.org/1999/xlink" x="0px" y="0px" viewBox="0 0 512 512" style="width: 256px; height: 256px; opacity: 1;" xml:space="preserve">
<style type="text/css">
	.st0{fill:#4B4B4B;}
</style>
<g>
	<path class="st0" d="M498.849,191.102c-5.468-11.229-13.762-22.675-26.922-28.034c-6.497-2.524-14.035-2.944-20.679-0.61
		c-4.347,1.431-8.129,4.165-11.073,7.51c-0.155-0.246-0.246-0.528-0.41-0.784c-4.083-6.89-9.469-12.914-15.566-17.799
		c-12.166-9.824-26.092-16.806-40.684-20.988c-7.272-2.206-14.664-3.801-22.101-5.186c-7.427-1.504-15.146-2.115-22.337-2.962
		c-14.764-1.558-29.492-2.679-44.256-3.5c-59.084-3.125-117.921-1.23-176.003-7.254c-14.527-1.44-29-3.245-43.4-5.505l-10.882-1.75
		c-4.064-0.583-8.011-0.874-12.094-0.848c-8.102,0.055-16.395,1.431-24.178,4.703c-7.755,3.254-15.028,8.466-20.25,15.584
		c-5.268,7.064-8.248,16.068-8.002,25.027c0.173,8.967,3.418,17.525,8.193,24.507c4.775,7.044,10.973,12.668,17.598,17.233
		c13.352,9.096,28.38,14.072,43.29,17.372c14.983,3.253,30.139,4.529,45.176,4.72c11.274,0.137,22.484-0.319,33.638-1.22
		c-0.355,0.282-0.729,0.528-1.075,0.82c-6.234,5.303-11.392,12.358-14.1,20.423c-2.706,8.075-2.98,16.87-1.321,25.236
		c1.623,8.385,5.386,16.396,10.809,22.994c5.104,6.27,11.629,11.155,18.647,14.7c-0.583,0.966-1.084,1.968-1.495,2.989
		c-1.276,3.427-1.613,6.963-1.358,10.326c0.556,6.743,3.19,12.722,6.261,18.162c6.362,10.854,15.767,19.294,26.256,25.264
		c4.138,2.36,8.466,4.247,12.878,5.878c-1.231,1.968-2.214,4.137-2.616,6.361c-1.084,5.222-0.246,10.544,1.65,15.119
		c3.928,9.26,11.428,15.767,19.33,20.223c16.158,8.831,34.194,10.134,51.236,7.738c15.84-2.616,31.515-8.849,43.454-20.669
		c13.106,0.3,26.339-0.292,39.517-1.75c13.27-1.595,26.54-3.983,39.517-8.02c12.878-4.129,25.746-9.56,36.764-18.3
		c2.589-2.069,5.077-4.32,7.391-6.744c3.163,4.274,7.264,8.12,12.568,10.518c6.28,2.998,14.263,3.262,20.98,0.683
		c6.753-2.579,12.094-7.263,16.322-12.294c4.247-5.085,7.373-10.754,10.008-16.477c10.143-23.176,12.157-47.847,12.467-71.633
		C511.7,238.866,509.667,214.196,498.849,191.102z M143.353,255.462c-1.303-6.479-0.802-13.205,0.611-19.703
		c1.448-6.462,3.855-13.024,8.102-18.638c1.923-2.661,4.31-4.921,6.963-6.835c0.028-0.009,0.064-0.009,0.092-0.018
		c11.656-1.14,23.513-2.607,35.242-5.031c-3.145,5.75-6.434,11.392-9.944,16.906c-3.572,5.632-7.09,10.763-11.228,16.45
		c-4.912,6.735-5.496,16.35-2.643,23.742c2.743,7.591,8.384,13.689,15.01,17.535c6.662,3.892,14.19,5.605,21.49,5.86
		c7.219,0.274,14.765-0.793,21.636-3.673c6.88-2.834,13.014-7.29,17.881-12.631c9.095-10.116,14.645-22.247,17.288-35.115
		l13.816,0.811c1.722,0.338,3.417,0.739,5.077,1.24c6.644,2.004,12.631,5.668,16.55,10.899c3.955,5.167,5.787,11.83,5.049,18.127
		c-0.392,3.117-1.339,6.142-2.89,8.63c-1.576,2.552-3.5,4.247-6.47,5.742c-12.35,6.352-27.25,9.65-41.686,11.884
		c-14.601,2.123-29.42,2.798-44.092,2.132c-7.318-0.356-14.7-1.184-21.754-2.406c-7.464-1.23-13.907-2.962-20.151-5.988
		C154.964,279.586,145.741,268.523,143.353,255.462z M196.74,341.468c-8.849-5.14-16.523-12.304-21.417-20.862
		c-2.461-4.238-4.018-8.877-4.739-13.26c-0.374-2.196-0.638-4.32-0.62-6.343c-0.027-0.583,0.055-1.121,0.092-1.677
		c5.122,1.723,10.352,2.944,15.238,3.719c7.846,1.33,15.538,2.142,23.34,2.488c15.556,0.746,31.105-0.338,46.397-2.944
		c13.735-2.515,27.324-5.586,40.447-11.838c7.391,0.537,14.582,5.678,18.82,12.212c2.752,4.074,4.494,9.004,5.004,13.58
		c0.155,1.631,0.191,2.205,0.054,3.18c-0.146,0.92-0.419,1.886-0.83,2.862c-0.838,1.95-2.169,3.91-3.718,5.769
		c-6.425,7.445-15.986,12.886-25.756,16.796c-9.86,3.909-20.396,6.288-31.004,7.29C236.914,354.337,214.558,351.83,196.74,341.468z
		 M311.144,377.376c-10.079,10.235-25.199,15.657-39.89,17.462c-7.409,0.912-15.001,0.839-22.255-0.291
		c-7.4-1.13-14.373-3.19-20.47-6.681c-6.06-3.427-10.991-8.394-13.87-13.844c-2.151-4.302-3.455-8.52-2.333-13.06
		c3.982,1.058,7.965,1.969,12.002,2.561c11.574,1.668,23.367,1.969,34.978,0.511c11.602-1.431,23.049-4.347,33.848-8.995
		c6.489-2.853,12.796-6.316,18.601-10.672c3.955,4.593,6.816,9.788,7.145,15.11C319.401,366.047,316.02,372.29,311.144,377.376z
		 M493.682,296.738c-1.266,11.155-3.582,22.137-7.3,32.28c-3.773,9.952-9.433,19.585-17.626,23.832
		c-4.01,2.142-8.621,2.697-13.224,1.276c-4.083-1.276-7.974-3.964-11.392-7.364c0.82-1.102,1.668-2.223,2.415-3.399
		c3.81-5.97,6.398-12.686,7.619-19.521l-6.27-1.476c-3.554,11.83-11.748,21.298-21.855,27.924
		c-10.207,6.617-21.973,11.1-34.157,14.072c-12.176,3.062-24.753,4.94-37.439,6.088c-9.351,0.912-18.775,1.331-28.216,1.64
		c1.476-4.329,2.088-8.977,1.34-13.634c-1.176-7.665-5.386-13.826-10.39-18.583c1.786-1.686,3.572-3.4,5.194-5.359
		c1.96-2.479,3.737-5.258,4.931-8.521c0.592-1.64,1.039-3.4,1.221-5.259c0.218-1.814-0.073-4.037-0.246-5.186
		c-1.029-6.489-3.527-12.248-7.218-17.316c-3.664-5.021-8.512-9.232-14.263-11.902c-0.774-0.347-1.614-0.583-2.415-0.866
		c2.16-1.805,4.138-3.983,5.477-6.398c2.36-4.01,3.572-8.439,3.901-12.832c0.164-2.251,0.082-4.511-0.21-6.716
		c6.316,5.605,13.461,9.943,20.87,13.333c16.624,7.473,34.313,10.973,51.857,13.042l0.838-6.38
		c-17.042-2.589-34.022-6.636-49.15-14.1c-7.518-3.745-14.518-8.411-20.096-14.234c-2.771-2.899-5.158-6.106-6.98-9.515
		c-1.759-3.254-3.09-7.437-3.199-10.144l0.082-5.094l-5.022,0.137l-29.146,0.811c-4.156-0.219-8.312-0.064-12.366,0.328
		l-2.233-0.191l-0.912,2.78c-3.91,11.966-9.843,23.896-18.364,32.681c-8.421,8.95-20.06,13.679-32.308,12.896
		c-6.015-0.274-11.857-1.75-16.751-4.666c-4.867-2.889-8.703-7.282-10.471-12.322c-1.75-5.085-1.367-10.344,1.668-14.536
		c3.709-5.112,7.71-11.036,11.246-16.714c7.264-11.474,13.534-23.614,19.476-35.534c2.998-5.851,5.942-11.958,9.46-16.368
		c0.884-1.057,1.796-1.987,2.662-2.634l1.075-0.693l0.876-0.355l0.966-0.31c2.742-0.776,5.96-1.294,9.15-1.742
		c12.905-1.713,26.292-2.36,39.607-3.582c13.324-1.167,26.731-2.215,40.182-5.277l-1.267-6.307
		c-25.892,3.591-52.713,2.607-79.744,5.588c-3.436,0.419-6.844,0.856-10.562,1.813l-1.44,0.41l-1.44,0.566
		c-1.222,0.547-2.398,1.249-3.226,1.868c-1.814,1.321-3.254,2.825-4.503,4.329c-4.821,6.069-7.6,12.175-10.763,18.136
		c-1.576,3.098-3.162,6.188-4.748,9.242c-13.752-0.948-27.25-0.556-41.02,0.4c-14.445,1.258-28.908,1.832-43.281,1.377
		c-14.345-0.493-28.617-1.924-42.388-4.922c-13.706-3.035-27.068-7.81-38.122-15.292c-10.992-7.301-19.449-18.255-19.705-29.993
		c-0.528-11.693,7.747-22.547,19.376-27.296c5.779-2.478,12.258-3.664,18.848-3.746c3.29-0.054,6.68,0.183,9.906,0.62l10.927,1.577
		c14.7,2.069,29.446,3.672,44.21,4.894c59.184,5.149,118.267,2.324,176.713,4.566c14.601,0.583,29.246,1.486,43.736,2.789
		c7.446,0.647,14.409,1.358,21.372,3.007c6.963,1.568,13.788,3.837,20.478,6.307c13.214,5.213,26.384,10.745,37.54,18.938
		c11.082,8.13,20.159,18.865,22.328,32.646l6.397-0.638c0.027-4.949-1.002-10.044-2.771-14.873c2.862-3.1,6.462-5.123,10.326-5.943
		c4.639-0.947,9.432-0.027,13.588,2.234c8.504,4.456,14.463,13.67,18.492,23.495c3.964,9.989,6.425,20.897,7.774,32.016
		c1.44,11.082,2.014,22.51,1.932,33.802C495.632,274.273,495.049,285.555,493.682,296.738z" style="fill: rgb(255, 255, 0);"></path>
</g>
</svg>
